<svg width="239" height="34" viewBox="0 0 239 34" fill="none" xmlns="http://www.w3.org/2000/svg">
<path d="M0.681641 0.687498H23.1816V3.1875H25.6816V5.6875H28.1816V28.1875H25.6816V30.6875H23.1816V33.1875H0.681641V0.687498ZM8.18164 25.6875H20.6816V8.1875H8.18164V25.6875ZM40.7012 0.687498H58.2012V8.1875H53.2012V25.6875H58.2012V33.1875H40.7012V25.6875H45.7012V8.1875H40.7012V0.687498ZM70.7207 5.6875H73.2207V3.1875H75.7207V0.687498H95.7207V8.1875H78.2207V13.1875H93.2207V15.6875H95.7207V18.1875H98.2207V28.1875H95.7207V30.6875H93.2207V33.1875H70.7207V25.6875H90.7207V20.6875H75.7207V18.1875H73.2207V15.6875H70.7207V5.6875ZM105.74 5.6875H108.24V3.1875H110.74V0.687498H133.24V8.1875H113.24V25.6875H133.24V33.1875H110.74V30.6875H108.24V28.1875H105.74V5.6875ZM140.76 5.6875H143.26V3.1875H145.76V0.687498H163.26V3.1875H165.76V5.6875H168.26V28.1875H165.76V30.6875H163.26V33.1875H145.76V30.6875H143.26V28.1875H140.76V5.6875ZM148.26 25.6875H160.76V8.1875H148.26V25.6875ZM175.779 0.687498H198.279V3.1875H200.779V5.6875H203.279V18.1875H200.779V20.6875H195.779V23.1875H198.279V25.6875H200.779V28.1875H203.279V33.1875H195.779V30.6875H193.279V28.1875H190.779V25.6875H188.279V23.1875H183.279V33.1875H175.779V0.687498ZM183.279 15.6875H195.779V8.1875H183.279V15.6875ZM210.799 0.687498H233.299V3.1875H235.799V5.6875H238.299V28.1875H235.799V30.6875H233.299V33.1875H210.799V0.687498ZM218.299 25.6875H230.799V8.1875H218.299V25.6875Z" fill="#FFDE00"/>
<path d="M0.681641 0.687498V-1.3125H-1.31836V0.687498H0.681641ZM23.1816 0.687498H25.1816V-1.3125H23.1816V0.687498ZM23.1816 3.1875H21.1816V5.1875H23.1816V3.1875ZM25.6816 3.1875H27.6816V1.1875H25.6816V3.1875ZM25.6816 5.6875H23.6816V7.6875H25.6816V5.6875ZM28.1816 5.6875H30.1816V3.6875H28.1816V5.6875ZM28.1816 28.1875V30.1875H30.1816V28.1875H28.1816ZM25.6816 28.1875V26.1875H23.6816V28.1875H25.6816ZM25.6816 30.6875V32.6875H27.6816V30.6875H25.6816ZM23.1816 30.6875V28.6875H21.1816V30.6875H23.1816ZM23.1816 33.1875V35.1875H25.1816V33.1875H23.1816ZM0.681641 33.1875H-1.31836V35.1875H0.681641V33.1875ZM8.18164 25.6875H6.18164V27.6875H8.18164V25.6875ZM20.6816 25.6875V27.6875H22.6816V25.6875H20.6816ZM20.6816 8.1875H22.6816V6.1875H20.6816V8.1875ZM8.18164 8.1875V6.1875H6.18164V8.1875H8.18164ZM0.681641 2.6875H23.1816V-1.3125H0.681641V2.6875ZM21.1816 0.687498V3.1875H25.1816V0.687498H21.1816ZM23.1816 5.1875H25.6816V1.1875H23.1816V5.1875ZM23.6816 3.1875V5.6875H27.6816V3.1875H23.6816ZM25.6816 7.6875H28.1816V3.6875H25.6816V7.6875ZM26.1816 5.6875V28.1875H30.1816V5.6875H26.1816ZM28.1816 26.1875H25.6816V30.1875H28.1816V26.1875ZM23.6816 28.1875V30.6875H27.6816V28.1875H23.6816ZM25.6816 28.6875H23.1816V32.6875H25.6816V28.6875ZM21.1816 30.6875V33.1875H25.1816V30.6875H21.1816ZM23.1816 31.1875H0.681641V35.1875H23.1816V31.1875ZM2.68164 33.1875V0.687498H-1.31836V33.1875H2.68164ZM8.18164 27.6875H20.6816V23.6875H8.18164V27.6875ZM22.6816 25.6875V8.1875H18.6816V25.6875H22.6816ZM20.6816 6.1875H8.18164V10.1875H20.6816V6.1875ZM6.18164 8.1875V25.6875H10.1816V8.1875H6.18164ZM40.7012 0.687498V-1.3125H38.7012V0.687498H40.7012ZM58.2012 0.687498H60.2012V-1.3125H58.2012V0.687498ZM58.2012 8.1875V10.1875H60.2012V8.1875H58.2012ZM53.2012 8.1875V6.1875H51.2012V8.1875H53.2012ZM53.2012 25.6875H51.2012V27.6875H53.2012V25.6875ZM58.2012 25.6875H60.2012V23.6875H58.2012V25.6875ZM58.2012 33.1875V35.1875H60.2012V33.1875H58.2012ZM40.7012 33.1875H38.7012V35.1875H40.7012V33.1875ZM40.7012 25.6875V23.6875H38.7012V25.6875H40.7012ZM45.7012 25.6875V27.6875H47.7012V25.6875H45.7012ZM45.7012 8.1875H47.7012V6.1875H45.7012V8.1875ZM40.7012 8.1875H38.7012V10.1875H40.7012V8.1875ZM40.7012 2.6875H58.2012V-1.3125H40.7012V2.6875ZM56.2012 0.687498V8.1875H60.2012V0.687498H56.2012ZM58.2012 6.1875H53.2012V10.1875H58.2012V6.1875ZM51.2012 8.1875V25.6875H55.2012V8.1875H51.2012ZM53.2012 27.6875H58.2012V23.6875H53.2012V27.6875ZM56.2012 25.6875V33.1875H60.2012V25.6875H56.2012ZM58.2012 31.1875H40.7012V35.1875H58.2012V31.1875ZM42.7012 33.1875V25.6875H38.7012V33.1875H42.7012ZM40.7012 27.6875H45.7012V23.6875H40.7012V27.6875ZM47.7012 25.6875V8.1875H43.7012V25.6875H47.7012ZM45.7012 6.1875H40.7012V10.1875H45.7012V6.1875ZM42.7012 8.1875V0.687498H38.7012V8.1875H42.7012ZM70.7207 5.6875V3.6875H68.7207V5.6875H70.7207ZM73.2207 5.6875V7.6875H75.2207V5.6875H73.2207ZM73.2207 3.1875V1.1875H71.2207V3.1875H73.2207ZM75.7207 3.1875V5.1875H77.7207V3.1875H75.7207ZM75.7207 0.687498V-1.3125H73.7207V0.687498H75.7207ZM95.7207 0.687498H97.7207V-1.3125H95.7207V0.687498ZM95.7207 8.1875V10.1875H97.7207V8.1875H95.7207ZM78.2207 8.1875V6.1875H76.2207V8.1875H78.2207ZM78.2207 13.1875H76.2207V15.1875H78.2207V13.1875ZM93.2207 13.1875H95.2207V11.1875H93.2207V13.1875ZM93.2207 15.6875H91.2207V17.6875H93.2207V15.6875ZM95.7207 15.6875H97.7207V13.6875H95.7207V15.6875ZM95.7207 18.1875H93.7207V20.1875H95.7207V18.1875ZM98.2207 18.1875H100.221V16.1875H98.2207V18.1875ZM98.2207 28.1875V30.1875H100.221V28.1875H98.2207ZM95.7207 28.1875V26.1875H93.7207V28.1875H95.7207ZM95.7207 30.6875V32.6875H97.7207V30.6875H95.7207ZM93.2207 30.6875V28.6875H91.2207V30.6875H93.2207ZM93.2207 33.1875V35.1875H95.2207V33.1875H93.2207ZM70.7207 33.1875H68.7207V35.1875H70.7207V33.1875ZM70.7207 25.6875V23.6875H68.7207V25.6875H70.7207ZM90.7207 25.6875V27.6875H92.7207V25.6875H90.7207ZM90.7207 20.6875H92.7207V18.6875H90.7207V20.6875ZM75.7207 20.6875H73.7207V22.6875H75.7207V20.6875ZM75.7207 18.1875H77.7207V16.1875H75.7207V18.1875ZM73.2207 18.1875H71.2207V20.1875H73.2207V18.1875ZM73.2207 15.6875H75.2207V13.6875H73.2207V15.6875ZM70.7207 15.6875H68.7207V17.6875H70.7207V15.6875ZM70.7207 7.6875H73.2207V3.6875H70.7207V7.6875ZM75.2207 5.6875V3.1875H71.2207V5.6875H75.2207ZM73.2207 5.1875H75.7207V1.1875H73.2207V5.1875ZM77.7207 3.1875V0.687498H73.7207V3.1875H77.7207ZM75.7207 2.6875H95.7207V-1.3125H75.7207V2.6875ZM93.7207 0.687498V8.1875H97.7207V0.687498H93.7207ZM95.7207 6.1875H78.2207V10.1875H95.7207V6.1875ZM76.2207 8.1875V13.1875H80.2207V8.1875H76.2207ZM78.2207 15.1875H93.2207V11.1875H78.2207V15.1875ZM91.2207 13.1875V15.6875H95.2207V13.1875H91.2207ZM93.2207 17.6875H95.7207V13.6875H93.2207V17.6875ZM93.7207 15.6875V18.1875H97.7207V15.6875H93.7207ZM95.7207 20.1875H98.2207V16.1875H95.7207V20.1875ZM96.2207 18.1875V28.1875H100.221V18.1875H96.2207ZM98.2207 26.1875H95.7207V30.1875H98.2207V26.1875ZM93.7207 28.1875V30.6875H97.7207V28.1875H93.7207ZM95.7207 28.6875H93.2207V32.6875H95.7207V28.6875ZM91.2207 30.6875V33.1875H95.2207V30.6875H91.2207ZM93.2207 31.1875H70.7207V35.1875H93.2207V31.1875ZM72.7207 33.1875V25.6875H68.7207V33.1875H72.7207ZM70.7207 27.6875H90.7207V23.6875H70.7207V27.6875ZM92.7207 25.6875V20.6875H88.7207V25.6875H92.7207ZM90.7207 18.6875H75.7207V22.6875H90.7207V18.6875ZM77.7207 20.6875V18.1875H73.7207V20.6875H77.7207ZM75.7207 16.1875H73.2207V20.1875H75.7207V16.1875ZM75.2207 18.1875V15.6875H71.2207V18.1875H75.2207ZM73.2207 13.6875H70.7207V17.6875H73.2207V13.6875ZM72.7207 15.6875V5.6875H68.7207V15.6875H72.7207ZM105.74 5.6875V3.6875H103.74V5.6875H105.74ZM108.24 5.6875V7.6875H110.24V5.6875H108.24ZM108.24 3.1875V1.1875H106.24V3.1875H108.24ZM110.74 3.1875V5.1875H112.74V3.1875H110.74ZM110.74 0.687498V-1.3125H108.74V0.687498H110.74ZM133.24 0.687498H135.24V-1.3125H133.24V0.687498ZM133.24 8.1875V10.1875H135.24V8.1875H133.24ZM113.24 8.1875V6.1875H111.24V8.1875H113.24ZM113.24 25.6875H111.24V27.6875H113.24V25.6875ZM133.24 25.6875H135.24V23.6875H133.24V25.6875ZM133.24 33.1875V35.1875H135.24V33.1875H133.24ZM110.74 33.1875H108.74V35.1875H110.74V33.1875ZM110.74 30.6875H112.74V28.6875H110.74V30.6875ZM108.24 30.6875H106.24V32.6875H108.24V30.6875ZM108.24 28.1875H110.24V26.1875H108.24V28.1875ZM105.74 28.1875H103.74V30.1875H105.74V28.1875ZM105.74 7.6875H108.24V3.6875H105.74V7.6875ZM110.24 5.6875V3.1875H106.24V5.6875H110.24ZM108.24 5.1875H110.74V1.1875H108.24V5.1875ZM112.74 3.1875V0.687498H108.74V3.1875H112.74ZM110.74 2.6875H133.24V-1.3125H110.74V2.6875ZM131.24 0.687498V8.1875H135.24V0.687498H131.24ZM133.24 6.1875H113.24V10.1875H133.24V6.1875ZM111.24 8.1875V25.6875H115.24V8.1875H111.24ZM113.24 27.6875H133.24V23.6875H113.24V27.6875ZM131.24 25.6875V33.1875H135.24V25.6875H131.24ZM133.24 31.1875H110.74V35.1875H133.24V31.1875ZM112.74 33.1875V30.6875H108.74V33.1875H112.74ZM110.74 28.6875H108.24V32.6875H110.74V28.6875ZM110.24 30.6875V28.1875H106.24V30.6875H110.24ZM108.24 26.1875H105.74V30.1875H108.24V26.1875ZM107.74 28.1875V5.6875H103.74V28.1875H107.74ZM140.76 5.6875V3.6875H138.76V5.6875H140.76ZM143.26 5.6875V7.6875H145.26V5.6875H143.26ZM143.26 3.1875V1.1875H141.26V3.1875H143.26ZM145.76 3.1875V5.1875H147.76V3.1875H145.76ZM145.76 0.687498V-1.3125H143.76V0.687498H145.76ZM163.26 0.687498H165.26V-1.3125H163.26V0.687498ZM163.26 3.1875H161.26V5.1875H163.26V3.1875ZM165.76 3.1875H167.76V1.1875H165.76V3.1875ZM165.76 5.6875H163.76V7.6875H165.76V5.6875ZM168.26 5.6875H170.26V3.6875H168.26V5.6875ZM168.26 28.1875V30.1875H170.26V28.1875H168.26ZM165.76 28.1875V26.1875H163.76V28.1875H165.76ZM165.76 30.6875V32.6875H167.76V30.6875H165.76ZM163.26 30.6875V28.6875H161.26V30.6875H163.26ZM163.26 33.1875V35.1875H165.26V33.1875H163.26ZM145.76 33.1875H143.76V35.1875H145.76V33.1875ZM145.76 30.6875H147.76V28.6875H145.76V30.6875ZM143.26 30.6875H141.26V32.6875H143.26V30.6875ZM143.26 28.1875H145.26V26.1875H143.26V28.1875ZM140.76 28.1875H138.76V30.1875H140.76V28.1875ZM148.26 25.6875H146.26V27.6875H148.26V25.6875ZM160.76 25.6875V27.6875H162.76V25.6875H160.76ZM160.76 8.1875H162.76V6.1875H160.76V8.1875ZM148.26 8.1875V6.1875H146.26V8.1875H148.26ZM140.76 7.6875H143.26V3.6875H140.76V7.6875ZM145.26 5.6875V3.1875H141.26V5.6875H145.26ZM143.26 5.1875H145.76V1.1875H143.26V5.1875ZM147.76 3.1875V0.687498H143.76V3.1875H147.76ZM145.76 2.6875H163.26V-1.3125H145.76V2.6875ZM161.26 0.687498V3.1875H165.26V0.687498H161.26ZM163.26 5.1875H165.76V1.1875H163.26V5.1875ZM163.76 3.1875V5.6875H167.76V3.1875H163.76ZM165.76 7.6875H168.26V3.6875H165.76V7.6875ZM166.26 5.6875V28.1875H170.26V5.6875H166.26ZM168.26 26.1875H165.76V30.1875H168.26V26.1875ZM163.76 28.1875V30.6875H167.76V28.1875H163.76ZM165.76 28.6875H163.26V32.6875H165.76V28.6875ZM161.26 30.6875V33.1875H165.26V30.6875H161.26ZM163.26 31.1875H145.76V35.1875H163.26V31.1875ZM147.76 33.1875V30.6875H143.76V33.1875H147.76ZM145.76 28.6875H143.26V32.6875H145.76V28.6875ZM145.26 30.6875V28.1875H141.26V30.6875H145.26ZM143.26 26.1875H140.76V30.1875H143.26V26.1875ZM142.76 28.1875V5.6875H138.76V28.1875H142.76ZM148.26 27.6875H160.76V23.6875H148.26V27.6875ZM162.76 25.6875V8.1875H158.76V25.6875H162.76ZM160.76 6.1875H148.26V10.1875H160.76V6.1875ZM146.26 8.1875V25.6875H150.26V8.1875H146.26ZM175.779 0.687498V-1.3125H173.779V0.687498H175.779ZM198.279 0.687498H200.279V-1.3125H198.279V0.687498ZM198.279 3.1875H196.279V5.1875H198.279V3.1875ZM200.779 3.1875H202.779V1.1875H200.779V3.1875ZM200.779 5.6875H198.779V7.6875H200.779V5.6875ZM203.279 5.6875H205.279V3.6875H203.279V5.6875ZM203.279 18.1875V20.1875H205.279V18.1875H203.279ZM200.779 18.1875V16.1875H198.779V18.1875H200.779ZM200.779 20.6875V22.6875H202.779V20.6875H200.779ZM195.779 20.6875V18.6875H193.779V20.6875H195.779ZM195.779 23.1875H193.779V25.1875H195.779V23.1875ZM198.279 23.1875H200.279V21.1875H198.279V23.1875ZM198.279 25.6875H196.279V27.6875H198.279V25.6875ZM200.779 25.6875H202.779V23.6875H200.779V25.6875ZM200.779 28.1875H198.779V30.1875H200.779V28.1875ZM203.279 28.1875H205.279V26.1875H203.279V28.1875ZM203.279 33.1875V35.1875H205.279V33.1875H203.279ZM195.779 33.1875H193.779V35.1875H195.779V33.1875ZM195.779 30.6875H197.779V28.6875H195.779V30.6875ZM193.279 30.6875H191.279V32.6875H193.279V30.6875ZM193.279 28.1875H195.279V26.1875H193.279V28.1875ZM190.779 28.1875H188.779V30.1875H190.779V28.1875ZM190.779 25.6875H192.779V23.6875H190.779V25.6875ZM188.279 25.6875H186.279V27.6875H188.279V25.6875ZM188.279 23.1875H190.279V21.1875H188.279V23.1875ZM183.279 23.1875V21.1875H181.279V23.1875H183.279ZM183.279 33.1875V35.1875H185.279V33.1875H183.279ZM175.779 33.1875H173.779V35.1875H175.779V33.1875ZM183.279 15.6875H181.279V17.6875H183.279V15.6875ZM195.779 15.6875V17.6875H197.779V15.6875H195.779ZM195.779 8.1875H197.779V6.1875H195.779V8.1875ZM183.279 8.1875V6.1875H181.279V8.1875H183.279ZM175.779 2.6875H198.279V-1.3125H175.779V2.6875ZM196.279 0.687498V3.1875H200.279V0.687498H196.279ZM198.279 5.1875H200.779V1.1875H198.279V5.1875ZM198.779 3.1875V5.6875H202.779V3.1875H198.779ZM200.779 7.6875H203.279V3.6875H200.779V7.6875ZM201.279 5.6875V18.1875H205.279V5.6875H201.279ZM203.279 16.1875H200.779V20.1875H203.279V16.1875ZM198.779 18.1875V20.6875H202.779V18.1875H198.779ZM200.779 18.6875H195.779V22.6875H200.779V18.6875ZM193.779 20.6875V23.1875H197.779V20.6875H193.779ZM195.779 25.1875H198.279V21.1875H195.779V25.1875ZM196.279 23.1875V25.6875H200.279V23.1875H196.279ZM198.279 27.6875H200.779V23.6875H198.279V27.6875ZM198.779 25.6875V28.1875H202.779V25.6875H198.779ZM200.779 30.1875H203.279V26.1875H200.779V30.1875ZM201.279 28.1875V33.1875H205.279V28.1875H201.279ZM203.279 31.1875H195.779V35.1875H203.279V31.1875ZM197.779 33.1875V30.6875H193.779V33.1875H197.779ZM195.779 28.6875H193.279V32.6875H195.779V28.6875ZM195.279 30.6875V28.1875H191.279V30.6875H195.279ZM193.279 26.1875H190.779V30.1875H193.279V26.1875ZM192.779 28.1875V25.6875H188.779V28.1875H192.779ZM190.779 23.6875H188.279V27.6875H190.779V23.6875ZM190.279 25.6875V23.1875H186.279V25.6875H190.279ZM188.279 21.1875H183.279V25.1875H188.279V21.1875ZM181.279 23.1875V33.1875H185.279V23.1875H181.279ZM183.279 31.1875H175.779V35.1875H183.279V31.1875ZM177.779 33.1875V0.687498H173.779V33.1875H177.779ZM183.279 17.6875H195.779V13.6875H183.279V17.6875ZM197.779 15.6875V8.1875H193.779V15.6875H197.779ZM195.779 6.1875H183.279V10.1875H195.779V6.1875ZM181.279 8.1875V15.6875H185.279V8.1875H181.279ZM210.799 0.687498V-1.3125H208.799V0.687498H210.799ZM233.299 0.687498H235.299V-1.3125H233.299V0.687498ZM233.299 3.1875H231.299V5.1875H233.299V3.1875ZM235.799 3.1875H237.799V1.1875H235.799V3.1875ZM235.799 5.6875H233.799V7.6875H235.799V5.6875ZM238.299 5.6875H240.299V3.6875H238.299V5.6875ZM238.299 28.1875V30.1875H240.299V28.1875H238.299ZM235.799 28.1875V26.1875H233.799V28.1875H235.799ZM235.799 30.6875V32.6875H237.799V30.6875H235.799ZM233.299 30.6875V28.6875H231.299V30.6875H233.299ZM233.299 33.1875V35.1875H235.299V33.1875H233.299ZM210.799 33.1875H208.799V35.1875H210.799V33.1875ZM218.299 25.6875H216.299V27.6875H218.299V25.6875ZM230.799 25.6875V27.6875H232.799V25.6875H230.799ZM230.799 8.1875H232.799V6.1875H230.799V8.1875ZM218.299 8.1875V6.1875H216.299V8.1875H218.299ZM210.799 2.6875H233.299V-1.3125H210.799V2.6875ZM231.299 0.687498V3.1875H235.299V0.687498H231.299ZM233.299 5.1875H235.799V1.1875H233.299V5.1875ZM233.799 3.1875V5.6875H237.799V3.1875H233.799ZM235.799 7.6875H238.299V3.6875H235.799V7.6875ZM236.299 5.6875V28.1875H240.299V5.6875H236.299ZM238.299 26.1875H235.799V30.1875H238.299V26.1875ZM233.799 28.1875V30.6875H237.799V28.1875H233.799ZM235.799 28.6875H233.299V32.6875H235.799V28.6875ZM231.299 30.6875V33.1875H235.299V30.6875H231.299ZM233.299 31.1875H210.799V35.1875H233.299V31.1875ZM212.799 33.1875V0.687498H208.799V33.1875H212.799ZM218.299 27.6875H230.799V23.6875H218.299V27.6875ZM232.799 25.6875V8.1875H228.799V25.6875H232.799ZM230.799 6.1875H218.299V10.1875H230.799V6.1875ZM216.299 8.1875V25.6875H220.299V8.1875H216.299Z" fill="black"/>
</svg>
