<svg width="55" height="376" viewBox="0 0 55 376" fill="none" xmlns="http://www.w3.org/2000/svg">
<g filter="url(#filter0_d_4_6)">
<path d="M0.5 9.5H5V5H9.5V0.499997H45.5V14H14V45.5H36.5V36.5H23V23H50V50H45.5V54.5H41V59H9.5V54.5H5V50H0.5V9.5ZM0.5 87.5H5V83H9.5V78.5H41V83H45.5V87.5H50V137H36.5V123.5H14V137H0.5V87.5ZM14 110H36.5V92H14V110ZM0.5 156.5H14V170H18.5V174.5H23V179H27.5V174.5H32V170H36.5V156.5H50V215H36.5V188H32V192.5H27.5V197H23V192.5H18.5V188H14V215H0.5V156.5ZM0.5 234.5H50V248H14V257H45.5V270.5H14V279.5H50V293H0.5V234.5ZM0.5 321.5H5V317H9.5V312.5H45.5V326H14V335H41V339.5H45.5V344H50V362H45.5V366.5H41V371H0.5V357.5H36.5V348.5H9.5V344H5V339.5H0.5V321.5Z" fill="#FFDE00"/>
<path d="M0.5 9.5V7.5H-1.5V9.5H0.5ZM5 9.5V11.5H7V9.5H5ZM5 5V3H3V5H5ZM9.5 5V7H11.5V5H9.5ZM9.5 0.499997V-1.5H7.5V0.499997H9.5ZM45.5 0.499997H47.5V-1.5H45.5V0.499997ZM45.5 14V16H47.5V14H45.5ZM14 14V12H12V14H14ZM14 45.5H12V47.5H14V45.5ZM36.5 45.5V47.5H38.5V45.5H36.5ZM36.5 36.5H38.5V34.5H36.5V36.5ZM23 36.5H21V38.5H23V36.5ZM23 23V21H21V23H23ZM50 23H52V21H50V23ZM50 50V52H52V50H50ZM45.5 50V48H43.5V50H45.5ZM45.5 54.5V56.5H47.5V54.5H45.5ZM41 54.5V52.5H39V54.5H41ZM41 59V61H43V59H41ZM9.5 59H7.5V61H9.5V59ZM9.5 54.5H11.5V52.5H9.5V54.5ZM5 54.5H3V56.5H5V54.5ZM5 50H7V48H5V50ZM0.5 50H-1.5V52H0.5V50ZM0.5 11.5H5V7.5H0.5V11.5ZM7 9.5V5H3V9.5H7ZM5 7H9.5V3H5V7ZM11.5 5V0.499997H7.5V5H11.5ZM9.5 2.5H45.5V-1.5H9.5V2.5ZM43.5 0.499997V14H47.5V0.499997H43.5ZM45.5 12H14V16H45.5V12ZM12 14V45.5H16V14H12ZM14 47.5H36.5V43.5H14V47.5ZM38.5 45.5V36.5H34.5V45.5H38.5ZM36.5 34.5H23V38.5H36.5V34.5ZM25 36.5V23H21V36.5H25ZM23 25H50V21H23V25ZM48 23V50H52V23H48ZM50 48H45.5V52H50V48ZM43.5 50V54.5H47.5V50H43.5ZM45.5 52.5H41V56.5H45.5V52.5ZM39 54.5V59H43V54.5H39ZM41 57H9.5V61H41V57ZM11.5 59V54.5H7.5V59H11.5ZM9.5 52.5H5V56.5H9.5V52.5ZM7 54.5V50H3V54.5H7ZM5 48H0.5V52H5V48ZM2.5 50V9.5H-1.5V50H2.5ZM0.5 87.5V85.5H-1.5V87.5H0.5ZM5 87.5V89.5H7V87.5H5ZM5 83V81H3V83H5ZM9.5 83V85H11.5V83H9.5ZM9.5 78.5V76.5H7.5V78.5H9.5ZM41 78.5H43V76.5H41V78.5ZM41 83H39V85H41V83ZM45.5 83H47.5V81H45.5V83ZM45.5 87.5H43.5V89.5H45.5V87.5ZM50 87.5H52V85.5H50V87.5ZM50 137V139H52V137H50ZM36.5 137H34.5V139H36.5V137ZM36.5 123.5H38.5V121.5H36.5V123.5ZM14 123.5V121.5H12V123.5H14ZM14 137V139H16V137H14ZM0.5 137H-1.5V139H0.5V137ZM14 110H12V112H14V110ZM36.5 110V112H38.5V110H36.5ZM36.5 92H38.5V90H36.5V92ZM14 92V90H12V92H14ZM0.5 89.5H5V85.5H0.5V89.5ZM7 87.5V83H3V87.5H7ZM5 85H9.5V81H5V85ZM11.5 83V78.5H7.5V83H11.5ZM9.5 80.5H41V76.5H9.5V80.5ZM39 78.5V83H43V78.5H39ZM41 85H45.5V81H41V85ZM43.5 83V87.5H47.5V83H43.5ZM45.5 89.5H50V85.5H45.5V89.5ZM48 87.5V137H52V87.5H48ZM50 135H36.5V139H50V135ZM38.5 137V123.5H34.5V137H38.5ZM36.5 121.5H14V125.5H36.5V121.5ZM12 123.5V137H16V123.5H12ZM14 135H0.5V139H14V135ZM2.5 137V87.5H-1.5V137H2.5ZM14 112H36.5V108H14V112ZM38.5 110V92H34.5V110H38.5ZM36.5 90H14V94H36.5V90ZM12 92V110H16V92H12ZM0.5 156.5V154.5H-1.5V156.5H0.5ZM14 156.5H16V154.5H14V156.5ZM14 170H12V172H14V170ZM18.5 170H20.5V168H18.5V170ZM18.5 174.5H16.5V176.5H18.5V174.5ZM23 174.5H25V172.5H23V174.5ZM23 179H21V181H23V179ZM27.5 179V181H29.5V179H27.5ZM27.5 174.5V172.5H25.5V174.5H27.5ZM32 174.5V176.5H34V174.5H32ZM32 170V168H30V170H32ZM36.5 170V172H38.5V170H36.5ZM36.5 156.5V154.5H34.5V156.5H36.5ZM50 156.5H52V154.5H50V156.5ZM50 215V217H52V215H50ZM36.5 215H34.5V217H36.5V215ZM36.5 188H38.5V186H36.5V188ZM32 188V186H30V188H32ZM32 192.5V194.5H34V192.5H32ZM27.5 192.5V190.5H25.5V192.5H27.5ZM27.5 197V199H29.5V197H27.5ZM23 197H21V199H23V197ZM23 192.5H25V190.5H23V192.5ZM18.5 192.5H16.5V194.5H18.5V192.5ZM18.5 188H20.5V186H18.5V188ZM14 188V186H12V188H14ZM14 215V217H16V215H14ZM0.5 215H-1.5V217H0.5V215ZM0.5 158.5H14V154.5H0.5V158.5ZM12 156.5V170H16V156.5H12ZM14 172H18.5V168H14V172ZM16.5 170V174.5H20.5V170H16.5ZM18.5 176.5H23V172.5H18.5V176.5ZM21 174.5V179H25V174.5H21ZM23 181H27.5V177H23V181ZM29.5 179V174.5H25.5V179H29.5ZM27.5 176.5H32V172.5H27.5V176.5ZM34 174.5V170H30V174.5H34ZM32 172H36.5V168H32V172ZM38.5 170V156.5H34.5V170H38.5ZM36.5 158.5H50V154.5H36.5V158.5ZM48 156.5V215H52V156.5H48ZM50 213H36.5V217H50V213ZM38.5 215V188H34.5V215H38.5ZM36.5 186H32V190H36.5V186ZM30 188V192.5H34V188H30ZM32 190.5H27.5V194.5H32V190.5ZM25.5 192.5V197H29.5V192.5H25.5ZM27.5 195H23V199H27.5V195ZM25 197V192.5H21V197H25ZM23 190.5H18.5V194.5H23V190.5ZM20.5 192.5V188H16.5V192.5H20.5ZM18.5 186H14V190H18.5V186ZM12 188V215H16V188H12ZM14 213H0.5V217H14V213ZM2.5 215V156.5H-1.5V215H2.5ZM0.5 234.5V232.5H-1.5V234.5H0.5ZM50 234.5H52V232.5H50V234.5ZM50 248V250H52V248H50ZM14 248V246H12V248H14ZM14 257H12V259H14V257ZM45.5 257H47.5V255H45.5V257ZM45.5 270.5V272.5H47.5V270.5H45.5ZM14 270.5V268.5H12V270.5H14ZM14 279.5H12V281.5H14V279.5ZM50 279.5H52V277.5H50V279.5ZM50 293V295H52V293H50ZM0.5 293H-1.5V295H0.5V293ZM0.5 236.5H50V232.5H0.5V236.5ZM48 234.5V248H52V234.5H48ZM50 246H14V250H50V246ZM12 248V257H16V248H12ZM14 259H45.5V255H14V259ZM43.5 257V270.5H47.5V257H43.5ZM45.5 268.5H14V272.5H45.5V268.5ZM12 270.5V279.5H16V270.5H12ZM14 281.5H50V277.5H14V281.5ZM48 279.5V293H52V279.5H48ZM50 291H0.5V295H50V291ZM2.5 293V234.5H-1.5V293H2.5ZM0.5 321.5V319.5H-1.5V321.5H0.5ZM5 321.5V323.5H7V321.5H5ZM5 317V315H3V317H5ZM9.5 317V319H11.5V317H9.5ZM9.5 312.5V310.5H7.5V312.5H9.5ZM45.5 312.5H47.5V310.5H45.5V312.5ZM45.5 326V328H47.5V326H45.5ZM14 326V324H12V326H14ZM14 335H12V337H14V335ZM41 335H43V333H41V335ZM41 339.5H39V341.5H41V339.5ZM45.5 339.5H47.5V337.5H45.5V339.5ZM45.5 344H43.5V346H45.5V344ZM50 344H52V342H50V344ZM50 362V364H52V362H50ZM45.5 362V360H43.5V362H45.5ZM45.5 366.5V368.5H47.5V366.5H45.5ZM41 366.5V364.5H39V366.5H41ZM41 371V373H43V371H41ZM0.5 371H-1.5V373H0.5V371ZM0.5 357.5V355.5H-1.5V357.5H0.5ZM36.5 357.5V359.5H38.5V357.5H36.5ZM36.5 348.5H38.5V346.5H36.5V348.5ZM9.5 348.5H7.5V350.5H9.5V348.5ZM9.5 344H11.5V342H9.5V344ZM5 344H3V346H5V344ZM5 339.5H7V337.5H5V339.5ZM0.5 339.5H-1.5V341.5H0.5V339.5ZM0.5 323.5H5V319.5H0.5V323.5ZM7 321.5V317H3V321.5H7ZM5 319H9.5V315H5V319ZM11.5 317V312.5H7.5V317H11.5ZM9.5 314.5H45.5V310.5H9.5V314.5ZM43.5 312.5V326H47.5V312.5H43.5ZM45.5 324H14V328H45.5V324ZM12 326V335H16V326H12ZM14 337H41V333H14V337ZM39 335V339.5H43V335H39ZM41 341.5H45.5V337.5H41V341.5ZM43.5 339.5V344H47.5V339.5H43.5ZM45.5 346H50V342H45.5V346ZM48 344V362H52V344H48ZM50 360H45.5V364H50V360ZM43.5 362V366.5H47.5V362H43.5ZM45.5 364.5H41V368.5H45.5V364.5ZM39 366.5V371H43V366.5H39ZM41 369H0.5V373H41V369ZM2.5 371V357.5H-1.5V371H2.5ZM0.5 359.5H36.5V355.5H0.5V359.5ZM38.5 357.5V348.5H34.5V357.5H38.5ZM36.5 346.5H9.5V350.5H36.5V346.5ZM11.5 348.5V344H7.5V348.5H11.5ZM9.5 342H5V346H9.5V342ZM7 344V339.5H3V344H7ZM5 337.5H0.5V341.5H5V337.5ZM2.5 339.5V321.5H-1.5V339.5H2.5Z" fill="black"/>
</g>
<defs>
<filter id="filter0_d_4_6" x="0.5" y="0.5" width="54.5" height="375.5" filterUnits="userSpaceOnUse" color-interpolation-filters="sRGB">
<feFlood flood-opacity="0" result="BackgroundImageFix"/>
<feColorMatrix in="SourceAlpha" type="matrix" values="0 0 0 0 0 0 0 0 0 0 0 0 0 0 0 0 0 0 127 0" result="hardAlpha"/>
<feOffset dx="5" dy="5"/>
<feComposite in2="hardAlpha" operator="out"/>
<feColorMatrix type="matrix" values="0 0 0 0 1 0 0 0 0 0.54 0 0 0 0 0 0 0 0 1 0"/>
<feBlend mode="normal" in2="BackgroundImageFix" result="effect1_dropShadow_4_6"/>
<feBlend mode="normal" in="SourceGraphic" in2="effect1_dropShadow_4_6" result="shape"/>
</filter>
</defs>
</svg>
