<svg width="55" height="376" viewBox="0 0 55 376" fill="none" xmlns="http://www.w3.org/2000/svg">
<g filter="url(#filter0_d_1_3)">
<path d="M0.5 0.499997H14V45.5H50V59H0.5V0.499997ZM0.5 87.5H5V83H9.5V78.5H41V83H45.5V87.5H50V137H36.5V123.5H14V137H0.5V87.5ZM14 110H36.5V92H14V110ZM0.5 156.5H41V161H45.5V165.5H50V188H45.5V192.5H36.5V197H41V201.5H45.5V206H50V215H36.5V210.5H32V206H27.5V201.5H23V197H14V215H0.5V156.5ZM14 183.5H36.5V170H14V183.5ZM0.5 234.5H14V266H18.5V270.5H23V275H27.5V270.5H32V266H36.5V234.5H50V270.5H45.5V275H41V279.5H36.5V284H32V288.5H27.5V293H23V288.5H18.5V284H14V279.5H9.5V275H5V270.5H0.5V234.5ZM0.5 321.5H5V317H9.5V312.5H41V317H45.5V321.5H50V371H36.5V357.5H14V371H0.5V321.5ZM14 344H36.5V326H14V344Z" fill="#FFDE00"/>
<path d="M0.5 0.499997V-1.5H-1.5V0.499997H0.5ZM14 0.499997H16V-1.5H14V0.499997ZM14 45.5H12V47.5H14V45.5ZM50 45.5H52V43.5H50V45.5ZM50 59V61H52V59H50ZM0.5 59H-1.5V61H0.5V59ZM0.5 2.5H14V-1.5H0.5V2.5ZM12 0.499997V45.5H16V0.499997H12ZM14 47.5H50V43.5H14V47.5ZM48 45.5V59H52V45.5H48ZM50 57H0.5V61H50V57ZM2.5 59V0.499997H-1.5V59H2.5ZM0.5 87.5V85.5H-1.5V87.5H0.5ZM5 87.5V89.5H7V87.5H5ZM5 83V81H3V83H5ZM9.5 83V85H11.5V83H9.5ZM9.5 78.5V76.5H7.5V78.5H9.5ZM41 78.5H43V76.5H41V78.5ZM41 83H39V85H41V83ZM45.5 83H47.5V81H45.5V83ZM45.5 87.5H43.5V89.5H45.5V87.5ZM50 87.5H52V85.5H50V87.5ZM50 137V139H52V137H50ZM36.5 137H34.5V139H36.5V137ZM36.5 123.5H38.5V121.5H36.5V123.5ZM14 123.5V121.5H12V123.5H14ZM14 137V139H16V137H14ZM0.5 137H-1.5V139H0.5V137ZM14 110H12V112H14V110ZM36.5 110V112H38.5V110H36.5ZM36.5 92H38.5V90H36.5V92ZM14 92V90H12V92H14ZM0.5 89.5H5V85.5H0.5V89.5ZM7 87.5V83H3V87.5H7ZM5 85H9.5V81H5V85ZM11.5 83V78.5H7.5V83H11.5ZM9.5 80.5H41V76.5H9.5V80.5ZM39 78.5V83H43V78.5H39ZM41 85H45.5V81H41V85ZM43.5 83V87.5H47.5V83H43.5ZM45.5 89.5H50V85.5H45.5V89.5ZM48 87.5V137H52V87.5H48ZM50 135H36.5V139H50V135ZM38.5 137V123.5H34.5V137H38.5ZM36.5 121.5H14V125.5H36.5V121.5ZM12 123.5V137H16V123.5H12ZM14 135H0.5V139H14V135ZM2.5 137V87.5H-1.5V137H2.5ZM14 112H36.5V108H14V112ZM38.5 110V92H34.5V110H38.5ZM36.5 90H14V94H36.5V90ZM12 92V110H16V92H12ZM0.5 156.5V154.5H-1.5V156.5H0.5ZM41 156.5H43V154.5H41V156.5ZM41 161H39V163H41V161ZM45.5 161H47.5V159H45.5V161ZM45.5 165.5H43.5V167.5H45.5V165.5ZM50 165.5H52V163.5H50V165.5ZM50 188V190H52V188H50ZM45.5 188V186H43.5V188H45.5ZM45.5 192.5V194.5H47.5V192.5H45.5ZM36.5 192.5V190.5H34.5V192.5H36.5ZM36.5 197H34.5V199H36.5V197ZM41 197H43V195H41V197ZM41 201.5H39V203.5H41V201.5ZM45.5 201.5H47.5V199.5H45.5V201.5ZM45.5 206H43.5V208H45.5V206ZM50 206H52V204H50V206ZM50 215V217H52V215H50ZM36.5 215H34.5V217H36.5V215ZM36.5 210.5H38.5V208.5H36.5V210.5ZM32 210.5H30V212.5H32V210.5ZM32 206H34V204H32V206ZM27.5 206H25.5V208H27.5V206ZM27.5 201.5H29.5V199.5H27.5V201.5ZM23 201.5H21V203.5H23V201.5ZM23 197H25V195H23V197ZM14 197V195H12V197H14ZM14 215V217H16V215H14ZM0.5 215H-1.5V217H0.5V215ZM14 183.5H12V185.5H14V183.5ZM36.5 183.5V185.5H38.5V183.5H36.5ZM36.5 170H38.5V168H36.5V170ZM14 170V168H12V170H14ZM0.5 158.5H41V154.5H0.5V158.5ZM39 156.5V161H43V156.5H39ZM41 163H45.5V159H41V163ZM43.5 161V165.5H47.5V161H43.5ZM45.5 167.5H50V163.5H45.5V167.5ZM48 165.5V188H52V165.5H48ZM50 186H45.5V190H50V186ZM43.5 188V192.5H47.5V188H43.5ZM45.5 190.5H36.5V194.5H45.5V190.5ZM34.5 192.5V197H38.5V192.5H34.5ZM36.5 199H41V195H36.5V199ZM39 197V201.5H43V197H39ZM41 203.5H45.5V199.5H41V203.5ZM43.5 201.5V206H47.5V201.5H43.5ZM45.5 208H50V204H45.5V208ZM48 206V215H52V206H48ZM50 213H36.5V217H50V213ZM38.5 215V210.5H34.5V215H38.5ZM36.5 208.5H32V212.5H36.5V208.5ZM34 210.5V206H30V210.5H34ZM32 204H27.5V208H32V204ZM29.5 206V201.5H25.5V206H29.5ZM27.5 199.5H23V203.5H27.5V199.5ZM25 201.5V197H21V201.5H25ZM23 195H14V199H23V195ZM12 197V215H16V197H12ZM14 213H0.5V217H14V213ZM2.5 215V156.5H-1.5V215H2.5ZM14 185.5H36.5V181.5H14V185.5ZM38.5 183.5V170H34.5V183.5H38.5ZM36.5 168H14V172H36.5V168ZM12 170V183.5H16V170H12ZM0.5 234.5V232.5H-1.5V234.5H0.5ZM14 234.5H16V232.5H14V234.5ZM14 266H12V268H14V266ZM18.5 266H20.5V264H18.5V266ZM18.5 270.5H16.5V272.5H18.5V270.5ZM23 270.5H25V268.5H23V270.5ZM23 275H21V277H23V275ZM27.5 275V277H29.5V275H27.5ZM27.5 270.5V268.5H25.5V270.5H27.5ZM32 270.5V272.5H34V270.5H32ZM32 266V264H30V266H32ZM36.5 266V268H38.5V266H36.5ZM36.5 234.5V232.5H34.5V234.5H36.5ZM50 234.5H52V232.5H50V234.5ZM50 270.5V272.5H52V270.5H50ZM45.5 270.5V268.5H43.5V270.5H45.5ZM45.5 275V277H47.5V275H45.5ZM41 275V273H39V275H41ZM41 279.5V281.5H43V279.5H41ZM36.5 279.5V277.5H34.5V279.5H36.5ZM36.5 284V286H38.5V284H36.5ZM32 284V282H30V284H32ZM32 288.5V290.5H34V288.5H32ZM27.5 288.5V286.5H25.5V288.5H27.5ZM27.5 293V295H29.5V293H27.5ZM23 293H21V295H23V293ZM23 288.5H25V286.5H23V288.5ZM18.5 288.5H16.5V290.5H18.5V288.5ZM18.5 284H20.5V282H18.5V284ZM14 284H12V286H14V284ZM14 279.5H16V277.5H14V279.5ZM9.5 279.5H7.5V281.5H9.5V279.5ZM9.5 275H11.5V273H9.5V275ZM5 275H3V277H5V275ZM5 270.5H7V268.5H5V270.5ZM0.5 270.5H-1.5V272.5H0.5V270.5ZM0.5 236.5H14V232.5H0.5V236.5ZM12 234.5V266H16V234.5H12ZM14 268H18.5V264H14V268ZM16.5 266V270.5H20.5V266H16.5ZM18.5 272.5H23V268.5H18.5V272.5ZM21 270.5V275H25V270.5H21ZM23 277H27.5V273H23V277ZM29.5 275V270.5H25.5V275H29.5ZM27.5 272.5H32V268.5H27.5V272.5ZM34 270.5V266H30V270.5H34ZM32 268H36.5V264H32V268ZM38.5 266V234.5H34.5V266H38.5ZM36.5 236.5H50V232.5H36.5V236.5ZM48 234.5V270.5H52V234.5H48ZM50 268.5H45.5V272.5H50V268.5ZM43.5 270.5V275H47.5V270.5H43.5ZM45.5 273H41V277H45.5V273ZM39 275V279.5H43V275H39ZM41 277.5H36.5V281.5H41V277.5ZM34.5 279.5V284H38.5V279.5H34.5ZM36.5 282H32V286H36.5V282ZM30 284V288.5H34V284H30ZM32 286.5H27.5V290.5H32V286.5ZM25.5 288.5V293H29.5V288.5H25.5ZM27.5 291H23V295H27.5V291ZM25 293V288.5H21V293H25ZM23 286.5H18.5V290.5H23V286.5ZM20.5 288.5V284H16.5V288.5H20.5ZM18.5 282H14V286H18.5V282ZM16 284V279.5H12V284H16ZM14 277.5H9.5V281.5H14V277.5ZM11.5 279.5V275H7.5V279.5H11.5ZM9.5 273H5V277H9.5V273ZM7 275V270.5H3V275H7ZM5 268.5H0.5V272.5H5V268.5ZM2.5 270.5V234.5H-1.5V270.5H2.5ZM0.5 321.5V319.5H-1.5V321.5H0.5ZM5 321.5V323.5H7V321.5H5ZM5 317V315H3V317H5ZM9.5 317V319H11.5V317H9.5ZM9.5 312.5V310.5H7.5V312.5H9.5ZM41 312.5H43V310.5H41V312.5ZM41 317H39V319H41V317ZM45.5 317H47.5V315H45.5V317ZM45.5 321.5H43.5V323.5H45.5V321.5ZM50 321.5H52V319.5H50V321.5ZM50 371V373H52V371H50ZM36.5 371H34.5V373H36.5V371ZM36.5 357.5H38.5V355.5H36.5V357.5ZM14 357.5V355.5H12V357.5H14ZM14 371V373H16V371H14ZM0.5 371H-1.5V373H0.5V371ZM14 344H12V346H14V344ZM36.5 344V346H38.5V344H36.5ZM36.5 326H38.5V324H36.5V326ZM14 326V324H12V326H14ZM0.5 323.5H5V319.5H0.5V323.5ZM7 321.5V317H3V321.5H7ZM5 319H9.5V315H5V319ZM11.5 317V312.5H7.5V317H11.5ZM9.5 314.5H41V310.5H9.5V314.5ZM39 312.5V317H43V312.5H39ZM41 319H45.5V315H41V319ZM43.5 317V321.5H47.5V317H43.5ZM45.5 323.5H50V319.5H45.5V323.5ZM48 321.5V371H52V321.5H48ZM50 369H36.5V373H50V369ZM38.5 371V357.5H34.5V371H38.5ZM36.5 355.5H14V359.5H36.5V355.5ZM12 357.5V371H16V357.5H12ZM14 369H0.5V373H14V369ZM2.5 371V321.5H-1.5V371H2.5ZM14 346H36.5V342H14V346ZM38.5 344V326H34.5V344H38.5ZM36.5 324H14V328H36.5V324ZM12 326V344H16V326H12Z" fill="black"/>
</g>
<defs>
<filter id="filter0_d_1_3" x="0.5" y="0.5" width="54.5" height="375.5" filterUnits="userSpaceOnUse" color-interpolation-filters="sRGB">
<feFlood flood-opacity="0" result="BackgroundImageFix"/>
<feColorMatrix in="SourceAlpha" type="matrix" values="0 0 0 0 0 0 0 0 0 0 0 0 0 0 0 0 0 0 127 0" result="hardAlpha"/>
<feOffset dx="5" dy="5"/>
<feComposite in2="hardAlpha" operator="out"/>
<feColorMatrix type="matrix" values="0 0 0 0 1 0 0 0 0 0.54 0 0 0 0 0 0 0 0 1 0"/>
<feBlend mode="normal" in2="BackgroundImageFix" result="effect1_dropShadow_1_3"/>
<feBlend mode="normal" in="SourceGraphic" in2="effect1_dropShadow_1_3" result="shape"/>
</filter>
</defs>
</svg>
